<svg width="26" height="21" viewBox="0 0 26 21" fill="none" xmlns="http://www.w3.org/2000/svg">
<path d="M23.6784 20.4286C24.2628 20.4286 24.7692 20.2356 25.1997 19.8546L17.8335 12.4881C17.6568 12.6146 17.4855 12.7377 17.3237 12.8547C16.7724 13.2609 16.325 13.5778 15.9815 13.8049C15.638 14.0325 15.1809 14.2645 14.6104 14.5014C14.0395 14.7385 13.5077 14.8567 13.0143 14.8567H12.9998H12.9854C12.492 14.8567 11.9601 14.7386 11.3893 14.5014C10.8184 14.2645 10.3614 14.0325 10.0182 13.8049C9.6747 13.5778 9.22753 13.2609 8.676 12.8547C8.5223 12.742 8.35184 12.6184 8.16756 12.4861L0.799927 19.8546C1.23038 20.2356 1.73712 20.4286 2.32152 20.4286H23.6784V20.4286Z" fill="white"/>
<path d="M1.46556 7.84947C0.914351 7.48199 0.425549 7.06111 0 6.58704V17.7946L6.49255 11.302C5.19367 10.3952 3.52013 9.24569 1.46556 7.84947Z" fill="white"/>
<path d="M24.5491 7.84947C22.5729 9.18706 20.8932 10.3386 19.51 11.3046L26 17.7948V6.58704C25.5839 7.05158 25.1003 7.47217 24.5491 7.84947Z" fill="white"/>
<path d="M23.6784 0H2.32153C1.57645 0 1.00362 0.2516 0.602338 0.754281C0.200722 1.2572 0.000244141 1.88615 0.000244141 2.64043C0.000244141 3.2497 0.266289 3.90985 0.798142 4.62108C1.32999 5.33203 1.89593 5.89046 2.49566 6.29666C2.82444 6.52895 3.81593 7.21823 5.47011 8.36426C6.36308 8.98306 7.13964 9.52242 7.80697 9.98786C8.37579 10.3842 8.86633 10.7274 9.27135 11.0122C9.31785 11.0449 9.39097 11.0972 9.48802 11.1666C9.59258 11.2417 9.72489 11.337 9.88812 11.4548C10.2025 11.6822 10.4636 11.8659 10.6716 12.0063C10.8793 12.1468 11.1309 12.3036 11.4261 12.4778C11.7211 12.6517 11.9993 12.7826 12.2605 12.8696C12.5217 12.9565 12.7634 13.0001 12.9859 13.0001H13.0003H13.0148C13.2371 13.0001 13.479 12.9565 13.7402 12.8696C14.0013 12.7826 14.2793 12.652 14.5745 12.4778C14.8694 12.3036 15.1207 12.1464 15.3291 12.0063C15.5371 11.8659 15.7982 11.6822 16.1126 11.4548C16.2755 11.337 16.4078 11.2416 16.5124 11.1668C16.6095 11.0971 16.6825 11.0451 16.7293 11.0122C17.0448 10.7927 17.5365 10.4509 18.1976 9.99187C19.4004 9.15611 21.1719 7.92601 23.5195 6.29666C24.2255 5.80351 24.8154 5.2084 25.2895 4.51218C25.7627 3.81596 26 3.08566 26 2.32152C26 1.68308 25.7699 1.13678 25.3109 0.681775C24.8513 0.227337 24.3071 0 23.6784 0Z" fill="white"/>
</svg>
