<svg width="26" height="26" viewBox="0 0 26 26" fill="none" xmlns="http://www.w3.org/2000/svg">
<path d="M11.5514 0.0900956C5.56375 0.740932 0.747558 5.55712 0.0967215 11.4146C-0.684282 17.923 3.3509 23.5202 9.07826 25.3425V22.3487C9.07826 22.3487 8.55759 22.4789 7.90676 22.4789C6.08441 22.4789 5.30341 20.9169 5.17324 20.0057C5.04308 19.485 4.78274 19.0945 4.39224 18.704C4.00174 18.5738 3.87157 18.5738 3.87157 18.4437C3.87157 18.1833 4.26207 18.1833 4.39224 18.1833C5.17324 18.1833 5.82408 19.0945 6.08441 19.485C6.73525 20.5264 7.51625 20.7867 7.90676 20.7867C8.42742 20.7867 8.81793 20.6565 9.07826 20.5264C9.20843 19.6152 9.59893 18.704 10.3799 18.1833C7.38609 17.5325 5.17324 15.8403 5.17324 12.9767C5.17324 11.5448 5.82408 10.113 6.73525 9.07164C6.60508 8.8113 6.47492 8.16046 6.47492 7.24929C6.47492 6.72862 6.47492 5.94762 6.86542 5.16662C6.86542 5.16662 8.68776 5.16662 10.5101 6.85879C11.1609 6.59846 12.0721 6.46829 12.9833 6.46829C13.8944 6.46829 14.8056 6.59846 15.5866 6.85879C17.2788 5.16662 19.2313 5.16662 19.2313 5.16662C19.4916 5.94762 19.4916 6.72862 19.4916 7.24929C19.4916 8.29063 19.3615 8.8113 19.2313 9.07164C20.1425 10.113 20.7933 11.4146 20.7933 12.9767C20.7933 15.8403 18.5805 17.5325 15.5866 18.1833C16.3676 18.8342 16.8883 20.0057 16.8883 21.1772V25.4727C22.2251 23.7805 26 18.8342 26 13.1068C26 5.29679 19.3615 -0.821075 11.5514 0.0900956Z" fill="white"/>
</svg>
