<svg width="26" height="28" viewBox="0 0 26 28" fill="none" xmlns="http://www.w3.org/2000/svg">
<path d="M3.27176 0C1.46538 0 0 1.46296 0 3.26935C0 5.07573 1.4642 6.57255 3.26935 6.57255C5.07449 6.57255 6.54111 5.07573 6.54111 3.26935C6.54111 1.4642 5.07814 0 3.27176 0ZM19.234 8.66667C16.4867 8.66667 14.9147 10.1034 14.1607 11.5322H14.0809V9.05115H8.66667V27.2381H14.3082V18.2353C14.3082 15.8631 14.4873 13.5707 17.4228 13.5707C20.3162 13.5707 20.3584 16.2755 20.3584 18.3852V27.2381H25.9927H26V17.2487C26 12.3607 24.9491 8.66667 19.234 8.66667ZM0.449777 9.05115V27.2381H6.09617V9.05115H0.449777Z" fill="white"/>
</svg>
